<?xml version="1.0" encoding="utf-8"?><svg xml:space="preserve" viewBox="0 0 100 100" y="0" x="0" xmlns="http://www.w3.org/2000/svg" id="Layer_1" version="1.1" width="200px" height="200px" xmlns:xlink="http://www.w3.org/1999/xlink" style="width:100%;height:100%;background-size:initial;background-repeat-y:initial;background-repeat-x:initial;background-position-y:initial;background-position-x:initial;background-origin:initial;background-color:initial;background-clip:initial;background-attachment:initial;animation-play-state:paused" ><g class="ldl-scale" style="transform-origin:50% 50%;transform:rotate(0deg) scale(0.8, 0.8);animation-play-state:paused" ><path fill="#f7b26a" d="M43.3 30.1l7.2 4.2V20.6c-2.6 2.6-5.1 5.9-7.2 9.5z" style="fill:rgb(243, 183, 46);animation-play-state:paused" ></path>
<path fill="#f47e5f" d="M50.5 7.5c-9 0-16.2 12.8-16.2 28.7h16.2V7.5z" style="fill:rgb(70, 134, 244);animation-play-state:paused" ></path>
<path fill="#e15c64" d="M29.2 13c-7.8 4.5-7.6 19.2.3 32.9l14.1-8.1L29.2 13z" style="fill:rgb(243, 183, 46);animation-play-state:paused" ></path>
<path fill="#f7b26a" d="M13.4 28.3c-4.5 7.8 3 20.5 16.7 28.4l8.1-14.1-24.8-14.3z" style="fill:rgb(243, 183, 46);animation-play-state:paused" ></path>
<path fill="#f47e5f" d="M7.5 49.5c0 9 12.8 16.2 28.7 16.2V49.5H7.5z" style="fill:rgb(70, 134, 244);animation-play-state:paused" ></path>
<path fill="#e15c64" d="M13 70.8c4.5 7.8 19.2 7.6 32.9-.3l-8.1-14.1L13 70.8z" style="fill:rgb(243, 183, 46);animation-play-state:paused" ></path>
<path fill="#f7b26a" d="M28.3 86.6c7.8 4.5 20.5-3 28.4-16.7l-14.1-8.1-14.3 24.8z" style="fill:rgb(243, 183, 46);animation-play-state:paused" ></path>
<path fill="#f47e5f" d="M49.5 92.5c9 0 16.2-12.8 16.2-28.7H49.5v28.7z" style="fill:rgb(70, 134, 244);animation-play-state:paused" ></path>
<path fill="#e15c64" d="M70.8 87c7.8-4.5 7.6-19.2-.3-32.9l-14.1 8.1L70.8 87z" style="fill:rgb(243, 183, 46);animation-play-state:paused" ></path>
<path fill="#f7b26a" d="M86.6 71.7c4.5-7.8-3-20.5-16.7-28.4l-8.1 14.1 24.8 14.3z" style="fill:rgb(243, 183, 46);animation-play-state:paused" ></path>
<path fill="#f47e5f" d="M92.5 50.5c0-9-12.8-16.2-28.7-16.2v16.2h28.7z" style="fill:rgb(70, 134, 244);animation-play-state:paused" ></path>
<path fill="#e15c64" d="M87 29.2c-4.5-7.8-19.2-7.6-32.9.3l8.1 14.1L87 29.2z" style="fill:rgb(243, 183, 46);animation-play-state:paused" ></path>
<path fill="#f7b26a" d="M71.7 13.4c-5.7-3.3-14-.1-21.2 7.1v13.7l6.9 4 14.3-24.8z" style="fill:rgb(243, 183, 46);animation-play-state:paused" ></path>
<path fill="#f5e169" d="M50 31.4c-10.3 0-18.6 8.3-18.6 18.6S39.7 68.6 50 68.6 68.6 60.3 68.6 50 60.3 31.4 50 31.4zm0 30.1c-6.3 0-11.5-5.1-11.5-11.5 0-6.3 5.1-11.5 11.5-11.5S61.5 43.7 61.5 50 56.3 61.5 50 61.5z" style="fill:rgb(56, 105, 197);animation-play-state:paused" ></path>
<metadata xmlns:d="https://loading.io/stock/" style="animation-play-state:paused" ><d:name style="animation-play-state:paused" >fan</d:name>


<d:tags style="animation-play-state:paused" >motor,turbine,windmill,flower,pinwheel,blossom,cosmos,fan,spinner</d:tags>


<d:license style="animation-play-state:paused" >by</d:license>


<d:slug style="animation-play-state:paused" >oqvyi4</d:slug></metadata></g><!-- generated by https://loading.io/ --></svg>