<?xml version="1.0" encoding="utf-8"?><svg xml:space="preserve" viewBox="0 0 100 100" y="0" x="0" xmlns="http://www.w3.org/2000/svg" id="Layer_1" version="1.1" width="200px" height="200px" xmlns:xlink="http://www.w3.org/1999/xlink" style="width:100%;height:100%;background-size:initial;background-repeat-y:initial;background-repeat-x:initial;background-position-y:initial;background-position-x:initial;background-origin:initial;background-color:initial;background-clip:initial;background-attachment:initial;animation-play-state:paused" ><g class="ldl-scale" style="transform-origin:50% 50%;transform:rotate(0deg) scale(0.8, 0.8);animation-play-state:paused" ><path fill="#f0af6b" d="M34.3 41l-6.7-4c.5-6.5 2.3-12.5 5-17.3l-3.8-6.5c-6.1 3.5-9.2 10.8-9 19.3.1 5.5 1.5 11.6 4.3 17.5h10.1c0-.5 0-.9.1-1.3.2-2.4.9-4.6 2.1-6.6L34.3 41z" style="fill:rgb(147, 219, 233);animation-play-state:paused" ></path>
<path fill="#d65a62" d="M35.7 56.7c-1-2-1.5-4.3-1.5-6.7H24.1c-2.8-5.9-4.3-12-4.3-17.5l-6.5-3.8c-3.5 6.1-2.5 13.9 1.9 21.2 2.8 4.7 7.1 9.3 12.5 13l6.8-3.9 2-1.1c-.4-.4-.6-.8-.8-1.2z" style="fill:rgb(59, 67, 104);animation-play-state:paused" ></path>
<path fill="#ea7c60" d="M41 63c-1.9-1.3-3.5-3.1-4.7-5.1l-2 1.1-6.7 4c-5.4-3.7-9.7-8.2-12.5-13H7.5c0 7 4.8 13.3 12.2 17.5 4.8 2.7 10.8 4.5 17.3 5l3.9-6.8 1.1-2c-.3-.2-.7-.5-1-.7z" style="fill:rgb(104, 156, 197);animation-play-state:paused" ></path>
<path fill="#f0af6b" d="M48.7 65.8c-2.4-.2-4.6-.9-6.6-2.1l-1.1 2-4 6.7c-6.5-.5-12.5-2.3-17.3-5l-6.5 3.8c3.5 6.1 10.8 9.2 19.3 9 5.5-.1 11.6-1.5 17.5-4.3V65.8h-1.3z" style="fill:rgb(147, 219, 233);animation-play-state:paused" ></path>
<path fill="#d65a62" d="M59 65.7l-1.1-2-1.2.6 2.3 1.4z" style="fill:rgb(59, 67, 104);animation-play-state:paused" ></path>
<path fill="#d65a62" d="M59 65.7l-2.3-1.3c-2 1-4.3 1.5-6.7 1.5V76c-5.9 2.8-12 4.3-17.5 4.3l-3.8 6.5c6.1 3.5 13.9 2.5 21.2-1.9 4.7-2.8 9.3-7.1 13-12.5L59 65.7z" style="fill:rgb(59, 67, 104);animation-play-state:paused" ></path>
<path fill="#ea7c60" d="M65.7 59l-2-1.1c-.2.4-.5.8-.7 1.1-1.3 1.9-3.1 3.5-5.1 4.7l1.1 2 3.9 6.8c-3.7 5.4-8.2 9.7-13 12.5v7.6c7 0 13.3-4.8 17.5-12.2 2.7-4.8 4.5-10.8 5-17.3L65.7 59z" style="fill:rgb(104, 156, 197);animation-play-state:paused" ></path>
<path fill="#f0af6b" d="M75.9 50H65.8c0 .5 0 .9-.1 1.3-.2 2.4-.9 4.6-2.1 6.6l2 1.1 6.8 3.9c-.5 6.5-2.3 12.5-5 17.3l3.8 6.5c6.1-3.5 9.2-10.8 9-19.3 0-5.4-1.5-11.5-4.3-17.4z" style="fill:rgb(147, 219, 233);animation-play-state:paused" ></path>
<path fill="#d65a62" d="M84.9 50c-2.8-4.7-7.1-9.3-12.5-13l-6.7 4-2 1.1.6 1.2c1 2 1.5 4.3 1.5 6.7h10.1c2.8 5.9 4.3 12 4.3 17.5l6.5 3.8c3.6-6.1 2.6-14-1.8-21.3z" style="fill:rgb(59, 67, 104);animation-play-state:paused" ></path>
<path fill="#ea7c60" d="M80.3 32.5c-4.8-2.7-10.8-4.5-17.3-5l-4 6.8-1.1 2c.4.2.8.5 1.1.7 1.9 1.3 3.5 3.1 4.7 5.1l2-1.1 6.8-3.9c5.4 3.7 9.7 8.2 12.5 13h7.6c-.1-7.1-4.9-13.4-12.3-17.6z" style="fill:rgb(104, 156, 197);animation-play-state:paused" ></path>
<path fill="#ea7c60" d="M32.5 19.7c-2.7 4.8-4.5 10.8-5 17.3l6.8 3.9 2 1.1c.2-.4.5-.8.7-1.1 1.3-1.9 3.1-3.5 5.1-4.7l-1.1-2-4-6.6c3.7-5.4 8.2-9.7 13-12.5V7.5c-7 0-13.3 4.8-17.5 12.2z" style="fill:rgb(104, 156, 197);animation-play-state:paused" ></path>
<path fill="#d65a62" d="M50 15.1c-4.7 2.8-9.3 7.1-13 12.5l3.9 6.8 1.1 2 1.2-.6c2-1 4.3-1.5 6.7-1.5V24.2c5.9-2.8 12-4.3 17.5-4.3l3.8-6.5c-6-3.7-13.9-2.7-21.2 1.7z" style="fill:rgb(59, 67, 104);animation-play-state:paused" ></path>
<path fill="#f0af6b" d="M67.5 19.7c-5.5.1-11.6 1.6-17.5 4.4v10.1c.5 0 .9 0 1.3.1 2.4.2 4.6.9 6.6 2.1l1.1-2 3.9-6.8c6.5.5 12.5 2.3 17.3 5l6.5-3.8c-3.4-6.1-10.7-9.2-19.2-9.1z" style="fill:rgb(147, 219, 233);animation-play-state:paused" ></path>
<circle fill="#a8b980" r="15.8" cy="50" cx="50" style="fill:rgb(94, 111, 163);animation-play-state:paused" ></circle>
<metadata xmlns:d="https://loading.io/stock/" style="animation-play-state:paused" ><d:name style="animation-play-state:paused" >fan</d:name>


<d:tags style="animation-play-state:paused" >motor,turbine,flower,blossom,cosmos,fan,spinner</d:tags>


<d:license style="animation-play-state:paused" >by</d:license>


<d:slug style="animation-play-state:paused" >qd7n3u</d:slug></metadata></g><!-- generated by https://loading.io/ --></svg>